<mxfile host="65bd71144e">
    <diagram id="JvkJfUu0yG4HwaUOi-W3" name="PÃ¡gina-1">
        <mxGraphModel dx="320" dy="411" grid="1" gridSize="10" guides="1" tooltips="1" connect="1" arrows="1" fold="1" page="1" pageScale="1" pageWidth="1169" pageHeight="827" math="0" shadow="0">
            <root>
                <mxCell id="0"/>
                <mxCell id="1" parent="0"/>
                <mxCell id="2" value="" style="shape=image;verticalLabelPosition=bottom;labelBackgroundColor=default;verticalAlign=top;aspect=fixed;imageAspect=0;image=data:image/png,iVBORw0KGgoAAAANSUhEUgAAAVsAAAI7CAYAAABC0zgqAAAABHNCSVQICAgIfAhkiAAAIABJREFUeJzs3Xd8G/X9x/HX3UmWvO14JHbiTCDQhDLCLCMNo4M0zNKyOmj766CljEJbWvpr+dEyuhiFtrR0Mlpa9upgBAiUUcJegUwntuM9ZFmyxt3vD8UhJjuR707S+5mHH8Rafgvl+/bXH0lnA5FsmXJXFU7JDNLWVEymELB2wzAngTOetF0NlONQjGMX4RDAwFp/XYc0BikMM4FBDIwIltGLQwcYzSRTS3GclVjplRhDy1h1Qp93d1Rk+xleB5Ac1bRwNqTnYAUPw2Af0qkZQDHB4BDhkENRuIhwqJRgEAKBzIdlZT5MEwwj8zHCcTIftg3pdOYjlcp8JJMQH46SGE4QjxskkyVADCuwDIcXSScXgbWY1fNe8+p/h8jWqGxl2zQtPJSgOR+co0ilZxMIDFNckqairILikgDhMBQVuZcnkYB4HKJDSQYHI8SGLFKpEAHrNWweIu08yOp5T7oXSGTLVLayadMeGU/COJZQ4DRSqYMIBmNUVgaorCintDSzU/WbVAqiUeiPRBjoT5JIlBAIPEMqeQsW97HiyHavI0rhUtnKuxofrqEoeAaG81nS6fdRXjlATXUtFRX+LNetSaVgYAC6u7uJRMqxrDewnT+RTN9E61HdXseTwqKyFZi8cD6WeT7JxFwqK/uoq6uhqsrrVNnX1wed3V3091YTLHqctP1zmuc94HUsKQwq20JVt7CMMutCnPQXCRYFqa+voGZcENP0OtnYs23o6k7S2TlAMpHECNzAYOqndM4b9Dqa5C+VbaGZ/M8GAiX/RzL5aaoqB5gwoZbSUq9TeScahbVru+jrryAY+hOpwe/T/JE2r2NJ/lHZForGh2soDv+E4fhnqKvrpWFCjauvHvC7RAJa23ro6qoiFP4TsfiFmutKNqlsC8GMRVeQSJxHbW2ExoYagkGvE/lXMgmtbd10dZVTFLiKZXO/7XUkyQ8q23w2+bGTMbiasrIATRPrCYe9TpQ74nFY3dLB4GCKlHMOLfNu9zqS5DaVbT5qWFhLsXUTcCBTJldTWel1otzV3w+rmnvBeJZY6lO0zevyOpLkJpVtvpn22Kew7euprU3S1DTO6zh5Y82abjo7izCDX2XFYTd5HUdyj8o2n8x48mac1HymTa+ivNzrNPknEoEVy/swrAdYdtgZXseR3KKyzQcND00mHHyAsrJ6pk+vH3WAF8kux4HlKzoYjHQQT86n7ehmryNJbtCqzHVNDx+GZd5LfYNB4wQNZ93SurafjjaHtH0sq49a5HUc8b8CeLtQHpv++Gk4LGTylFIVrcsaJ1QyZUoZDguZ8tipXscR/9PONldNfex/cOxr2WWXsOazHopEYOnSOAHrHJbN/Y3XccS/VLa5aOqi/8FOXs3M3UoK+q22fhGNwpK3h7AC57Di8Bu9jiP+pLLNNU0Lj8Owb2PmzJCK1keiUVjy1jCGdQqr5t3tdRzxH5VtLpn86Bwc52l23SVIRYXXaeS9BgbgnaVJDONgmo9Y7HUc8Rc9QZYrdnmwAsO8j8lNjorWpyoqYMqUNIZ5H7s8qAdJRlHZ5ozye6itCVJXp0N1+VltTZiacUU4Zfd6HUX8RWWbC2Y8eTGmOZumSbVeR5FtMLmpBsuaxbRF3/U6iviHZrZ+N/Hfu2KYbzHrfSbFxV6nkW0Vi8Hrb9g49u60fOgdr+OI97Sz9btQ6Hc0Ng6qaHNMcTFMbIwSCv3O6yjiDypbP2t89FgwZtPYoCdbclFDQzkYs2l6ZIHXUcR7Kls/Cxk/pmlStdcxZCc0TaomYP3Y6xjiPZWtXzU9sgCrqJZqdW1Oq64GK1in3a2obP3KCnyPCeN18O980DC+BivwPa9jiLdUtn7U+OhMnPQsamv0apF8UFMDTnoWjY/O9DqKeEdl60fBwOcZNy7hdQzJoupxCUKBz3kdQ7yjsvUjwzmJmpoqr2NIFtXWVOHYH/c6hnhHZes3kx6ZiJNupKzM6ySSTWVl4NiNND3Z6HUU8YbK1m8M+xBKSqNex5AxUFIahdihXscQb6hs/cYKzqWszPe/emGXBpPUHZlJR8AC564qrvn86He5HX9gkLsvKt3o8gCGAd84LsSS6ysY/nsVa26s4JrPF1MaNjZ5edOAC49/9/Jtf6jgN2eVUFuRQ88hlpdXYAXneh1DvKGy9R1jH0pLcu7IXrGEw8mHBHlfk7VNl7/y08Wc9dEQZ90wRM2n+jnq+1F2bTS5+9ubPiD6NV8o5vNHhfjyr4eo/XQ/H7x4kKpSgyd+VEY4mCOFW1IcBGMfr2OIN1S2vmM3EQp5HWK7GcAlt8W56nNbP4ZDfaXBOR8L8cmfRnnklRSDcYe3WtJ88qdD3PF0kuB7+npyncmXPhTixCujLHw1RSTmsKTF5tSfRXEc+OwROfK9KRQC7CavY4g3VLZ+k7arCQa9TrHdApbBb/+dYHyVwbH7bzn/QbsFaO2xeX5petTpkZjDr/81THL0yRy2R4AlrWneWD36jLQNtz+d5Ij3B7JyH8ZcMJh5fKUgqWz9xnGKsbbtR3E/MQywHTj3dzF+dmYxRVvov6pSg/Y+Z5tve0uXb+txqCnPkTGCZWUeXylIKlt/MTAwMXKkPDbhsddSvLIqzXnHbn4U0hVxmLQdb47r6LeZOG7Tl28YZ9DZv+3F7SnDAENrrlDpgfcXBwcbJ0fKYzMu+GOMbxwXpm4zrxT4z1sp6itNPjh79PY3HDT49ZdL1r8iYcQTb6TYpcFin+mjd/ymAScdFOShl5PZvQNjxXHAwfY6hnhDZes3hhEjnd765XxsRbvNjQ8N860Tw5s8vy/qcMWdcW49v4SP7RekvNhgt0aTO79dQl2lQTQ++ptNe5/Dz+8d5vZvljJvzwDFRQYzJpj8+dwSkmm46bEceWdzOp15fKUg5cgzCwXEsnpJJksJ5PZDc9ntw3xm3uZfJfC/f4nT3udw5afDTB9v0jngcNNjCS65Lb7Jy3/7phitPTbXf7GY6eMtegZt7n42ybzvDZJIjdW9yLJkMvP4SkHK3eFgvpr2+FNMmfwBqnRohLzT1wermv/DirmHeB1F3Kcxgt8YzssMxTa9vZPcFo0NA694HUO8obL1m2TyMSKDOjZCPooOREklFnodQ7yhsvUbx3yKocFNv2dVclt0qASKn/Q6hnhDZes3a45swTBbGRz0Oolk0+AgGGYrqw9t9TqKeENl60emdSddPXrWOp909fRgGnd6HUO8o7L1o3jyRnq7c+9oNLJ5vd1h4ukbvY4h3lHZ+lHrEUswrNfp6s7tdzdIRndPGsN6ndYjlngdRbyjsvWrdOpS1q7t9zqGZEFbWz/p1KVexxBvqWz9avWR95FOdtLTm9sHSih03b0O6WQnq4+8z+so4i2VrZ+l0xewpqXP6xiyE1rW9JFOX+B1DPGeytbPmo+6H3iN1jaNE3JRa9sAGK+texylwKls/W449nlaW8uJ6x28OSUWh9bWMoZjn/c6iviDytbvWj70DkWhS1i+otPrKLIdVqzoJFz0A1o+9I7XUcQfdNSvXDF90UKqKvdkclON11FkK5pX9zDQ/wpLD5vndRTxD+1sc4UZOY7ungRdXZon+FlnV4zunmGIHOd1FPEXlW2uWHrMAI69gFXNFgMDXqeRTRkYgObmAI69gKXH6EGSUVS2uaT5iMWYxiksfWeYqI7C6CvRKCxdOkwwcArNRyz2Oo74j8o216w64k4s62sseXtIhesT0SgseXsII/BVls/VwWZkk/QEWa6a/viXSKevZpddwpSXe52mcEUisHRpHIzzWDXv117HEf9S2eayKQtPIZ2+menTYVy1tfUrSFZ199qsWO4QsE5n5bzbvI4j/qayzXVNDx+GZd1L/XhobNBviXRLa2sfHR2QTh/L6qMWeR1H/E9lmw8aHppMOPgAZeX1TJ9Wj6GHdcw4Dixf0cFgpIN4cj5tRzd7HUlyg1ZlPpmx6Bac9DFMm16lOe4YiERgxfI+DOtBlh12utdxJLeobPPNtIWnYzu/oqY2xeSmaq/j5I3Va3ro6gziGGfRPO9mr+NI7lHZ5qOGhbUUB24C50CmTK6mstLrRLmrvx9WNfdi8hzR9Bm0zevyOpLkJpVtPpu88CQM41rKSoM0TaojHPY6Ue6Ix2H1mk4Go0mwz2bVEXr9rOwUlW0hmPbElaSS51IzLsLEiTUEg14n8q9kElpauunuKScQvJoVh3/L60iSH1S2haLx4RqKi37CcOIz1Nb10ThhHEVFXqfyj0QC1q7toaOzilDoj8SGv0nrUd1ex5L8obItNJP/2UBR6aUMJz5FVVU/E8bXUVrqdSrvRKOwtr2Tvr5KgqE/kxr8X5o/0uZ1LMk/KttCVbewjDLzAhz7SwSLgtTXV1EzzsIsgMNl2Db0dKdo7+wnmUhiBn5NJPUzOucNeh1N8pfKVmDywvkEjW8wnDycyupe6mpqqcrDN6P19UFndxf9vdWEgk+QdH5G87wHvI4lhUFlK+9qfLiGgHk6lnkm6fT7KC+PUFNTQ0UFBAJep9t+qVTmGLPd3d1EIuVY1hs4zh9JpG/WPFbcprKVTZv2yHhS5vEEzVNJpQ+kqGiIiooAlRUVlJb6s3xTqcwMtj8ywEB/ikSihID1LKn0rVjOPaw4st3riFK4VLaybZoWHophHINpHIWd2pNAYJjSUpvSsgpKii3CYVx9dUMikXkt7FAsTXRwgGjUJJUKYQZeBech0s4/WD3vSfcCiWyZylZ2TNPC2ZCegxU4HNgHOz0dKCYYHCIUsgmFQ4RCJRQFDQKBzE7YsjIfpgmGwagD5jhO5sO2IZ3OfKRSmY9kEuLDgyTiSeLDBslkCRDDCizDMV4inXgCrMWsnveaR/83RLZKZSvZM+WuKpySGaStqcBkrMCuBIzJ4IwnbVcD5TgU49hFOAQwePcYvA5pDFIYZgKDGBDBMnvBaCflNJNOvQM0Y6VXYgwtY9UJfd7cSRGRnGQ4XicQESkEKlspCAXwCnYREe+pbEVEXKCyFRFxgcpWRMQFKlsREReobEVEXKCyFRFxgcpWRMQFKlsREReobMVt3wBiwDnvOf2cdaef73oiEZE8VA4kgCGgi8zbdbvWfZ5Yd76IiGTB5cAwmaId+Rhed7qIiGRJORBndNnG0a5WRCTrNtzdalcrIjJGNtzdalcrIjKGLifzpJh2tSIiY6gcuAPtaqUA6HeQ5bGZ36S8PGS+MjxsT/U6i2SEwubKSNx+/5IfE/E6i7gr4HUAGTshhxOCIat69uw6r6MI0N0dZ3Vz/3IVbWHSO8jymGnxmdpxJZVe55CMrp6hfjvNn7zOId7QzjZPzfwm5WmbI6qqQl5HESCddhgcSFYmDO7yOot4QzvbPBVyOKGsIthvWRrL+0Ff3zCWyaMaIRQulW2e0gjBXzRCEI0R8pBGCP6iEYKAdrZ5SSMEf9EIQUBlm5c0QvAXjRAENEbIOxoh+ItGCDJCO9s8oxGCv2iEICNUtnlGIwR/0QhBRmiMkEc0QvAXjRBkQ9rZ5hGNEPxFIwTZkMo2j2iE4C8aIciGNEbIExoh+ItGCPJe2tnmCY0Q/EUjBHkvlW2e0AjBXzRCkPfSGCEPaITgLxohyKZoZ5sHNELwF40QZFNUtnlAIwR/0QhBNkVjhBynEYK/aIQgm6OdbY7TCMFfNEKQzVHZ5jiNEPxFIwTZHI0RcphGCP6iEYJsiXa2OUwjBH/RCEG2RGWbwzRC8BeNEGRLVLY5KldGCNPH7cPPPvYCoUApAAv2OJezDv7tqMuUFlVyw0krqQjXrT/tlL1/wKl7/5+rWXfGyAhhWCME2QyVbY7KlRHC8p4XWdzyIAv2OIeq4gnM2+Uz3PrixaMuE03080b7ExzYdNz60/adeAzPrb7H7bg7TCME2RqVbY7KpRHCHa9ezn6TPsYXDriGe9+4ir54+0aXeab5Tg6cfAIAk6tmYxoWy7tfcDvqDtMIQbZGZZuDcmWEMGI4FeW/a+5j19oDeXrVHZu8zIst/2Ji5UzqSqew76SP8tzqe3BwXE66YzRCkG2hss1BuTJCGFFVPIGDJp/Is813cfysb2zyMol0jBdb/sUBTccyZ+IxPNd8t8spd5xGCLItVLY5KJdGCACn7/NDHnzrOm598Xsc0HQ8k6tmA7B7/QeYUr3n+ss923wX83b5LEVWMSt7X/Eq7nbTCEG2hco2x+TaCGGvhqOoK53MY8tvIp4a5PZXL+PM/X6GaVgcPu109mo4ev1lX137GCGrOKeeGNMIQbaV3kGWY0IOJ5RWBvsty8iJne3LbQ/zctvD6z9/etXtPL3qdgAWLvsTDRW7rj/PdlJEhnt4pvlO13PuqPUjhCs0QpAt0842x+TaCGFLiqxiXljz4PrPD536Sfria2npX+Jhqu2jEYJsK+1sc0iujRC25vX2x9f//TtH3EtpUTXXPPlpDxNtHx0LQbaHyjaH5NoIYXtc9uixXkfYbhohyPbQGCGH5NMIIR9ohCDbQzvbHJFvI4RcpxGCbC/tbHNErr2RId/pjQyyvVS2OUIjBH/RCEG2l8YIOUAjBH/RCEF2hHa2OUAjBH/RCEF2hMo2B2iE4C8aIciO0BjB5zRC8BeNEGRHaWfrcxoh+ItGCLKjVLY+pxGCv2iEIDtKYwQf0wjBXzRCkJ2hna2PaYTgLxohyM5Q2fqYRgj+ohGC7AyNEXxKIwR/0QhBdpZ2tj6lEYK/aIQgO0tl61MaIfiLRgiyszRG8CGNEPxFIwTJBu1sfUgjBH/RCEGyQWXrQxoh+ItGCJINGiP4jEYI/qIRgmSLdrY+oxGCv2iEINmisvUZjRD8RSMEyRaNEXxk5jcpDwSN6StX9rNyZb/XcQQIhczeYY0QRCQPOF4HEHGDxggiIi5Q2YqIuEBlKyLiApWtiIgLVLYiIi5Q2YqIuEBlKyLiApWtiIgLVLYiIi5Q2YqIuEBlKyLiApWtiIgLVLYiIi5Q2YqIuEBlKyLiApWtiIgLVLYiIi5Q2YqIuEBlKyLiApWtiIgLVLYiIi5Q2YqIuEBlKyLiApWtiIgLVLYiIi5Q2YqIuEBlKyLiApWtiIgLVLYiIi5Q2YqIuEBlK277BhADznnP6eesO/181xOJiOShciABDAFdgLPuv0PrTi/3LpqISH65HBgmU7QjH8PrThcRkSwpB+KMLts42tWKiGTdhrtb7WpFRMbIhrtb7WpFRMbQ5WSeFNOuVkRkDJUDd6BdrRSAgNcBpHCdDYeXENx3iOThv4AHvM4jMpb0pgbxxNkw34T7qymfasL9Z8N8rzOJjCWVrbhupGh3oZFGatiFRlS4ku8MrwNIYdmwaCspXX96P1GW0ooNH9NIQfKRylZcs7miHaHClXymshVXbK1oR6hwJV+pbGXMbWvRjlDhSj5S2cqY2t6iHaHClXyjspUxs6NFO0KFK/lEZStjYmeLdoQKV/KFylayLltFO0KFK/lAZStZle2iHaHClVynspWsGauiHaHClVymspWsGOuiHaHClVylspWd5lbRjlDhSi5S2cpOcbtoR6hwJdeobGWHeVW0I1S4kktUtrJDvC7aESpcyRUqW9lufinaESpcyQUqW9kufivaESpc8TuVrWwzvxbtCBWu+JnKVraJ34t2hApX/EplK1uVK0U7QoUrfqSylS3KtaIdocIVv1HZymblatGOUOGKn6hsZZNyvWhHqHDFL1S2spF8KdoRKlzxA5WtjJJvRTtChSteU9nKevlatCNUuOIlla0A+V+0I1S44hWVrRRM0Y5Q4YoXVLYFrtCKdoQKV9ymsi1ghVq0I1S44iaVbYEq9KIdocIVt6hsC5CKdjQVrrhBZVtgxqJo97/mYoqqKkgnEjzzPxevP332RV/CHk7wxs//kJWvsykTP3o4+1/7PYob6ul8+kWePOMC4u1d2307KlwZa6bXAcQ9Y1G05btOpWx6E0995psYpknNfrMBKG1qoOn4o3nz2j9n5etsSlFVBYfc/DOePesH3FY9h96X3+KAX3xvh26rklJ2oRET7j8b5mc5qojKtlDsbNHWHvB+Tmx+nEBZCQB7fvcrHP63a6jYdQqDy1cDEF3ZQsVu0wCY8/OLeOGbP8ZJpdffxjHP38mUj39k/eeTFhzB/Bfv2eH71PChQ+j+7yu0PfQUdjLFK5dez6SPzcMKFe3Q7alwZSwFvA4gYy8bO9qu515h9V0Psed3vsJb193Ebl85jQf3P5HqPWdiBCwAjGAAO5mi4ehDsIcTlDY1cMT9v6HvjaW88K2fsPLW+5h62gJW3f5PACafcDSrbnuQGWeexP5XfWejr7n4wiuxU+nNnheur2Hg7ZXrT0v2R0j0RyiZ3EjknZUbXWdbjBTuUlrvP1sjBckilW2ey+bo4MXv/pz5L9xNzX6zefXS64m1dYIDe13ydTAMag/ci1W3PcgH/nAFi07/BnP/fi0P7HcCB91wKRPmHciKvz7AXpeeS7CynNTgEJMWHMGDB36cweWrWfaHOzb7dTd33t4/Op90fHjUael4guC63feOUuHKWNAYIWN/4FLgEWA1EAe+Dzi5/mESuLmBcVmZ0aYGh1j1939Sf+gclt9yLwCxtZ0sv/kejn7oj6x99BkmLTiClX+9n0BJmMjSVTipNN3Pv8a4vfcg1tpB17MvM/nEDzH+8P0ZXLFm/Qhih/JEhwhWlI06raiyjOTg0E7dT8gUbgPjMAncjA8exxz7iJNZR4+QWVf7b/cDkIcKfWc7C7gM2BP4K3AF8DqwFrCBS7yLlh0Gqflt9NxfSninC7e4sZ5ppy1gxV/uZ6/vn83iC68EYMn1t7Dk+lsomTSBubf/gn8eegrV798dx7YzV7RtDCszalhx631M/eQxDLy9kpW3ZTaMOzpGGFiygsYPHfpuvoY6zFAR0VUtO3U/IfPqhDZ6sOEMtLPdXiYwgcz6mgfcBrwKfIfM+ipIhfzSr/nA34GLgZ97nGVMnQvznSyMEube/gvaHnmaFTffw4LXH2ThsV+m96U3159/+G1Xs+SXt9L++HMUVVVw5L9+zz8O/Dj7X/s9Wv+1iJYHHqOoupITVz1GanCIfxx0MtHm1h3OEywv5filD/PkGRfQ/vhz7HfVdwhWlPHUpy7c4dsEvQxsjJwP/BA4mQL9f1qoY4RZZIr2ZPK8aAGuhgcM+NhSWuknukO3MXH+BymbNol3bvgryUiUl77zcw7+7Y/W71gnHHkwdjJF++PPAZDoG2DNvY9w1EN/JFxfQ+u/FmVO7+2nfeEzDK5YvVNFC5CMRFl06nkccP33+WTP85RNncTz5/5op25TRTtmfk5mvf2dzPorOIW6s70HeJwCKNoNZWuHu7MOuuFSel9+iyW/vMWzDJuionXF+cBc4Divg7itEHe2+5OZ0RZU0UJ2drg7q2rWrkw8Zi7Lb97x19eOBRWta35OZv0V3JNmhVi2x5J5MqwgeVm4+15xAUc/8iee+9olJAcGXf3aW6Kidd1fyazDglKIY4RHyLzq4CGvg3jJLyMFr6loPXE08C3gKK+DuKkQd7a7UcAvPxnhh5GC11S0nnkdmOl1CLcV4s42DpSQeR1twSvUHa6K1lMmMASEvQ7ipkIr2yJgmMK731tUaIWrovUFhwJbhwV1Z9cpuAd5WxRK4apofaPg1mEhzmxlEwphhquiFS+pbGW9fC5cFa14TWUro+Rj4apoxQ9UtrKRfCpcFa34hcpWNikfCldFK36ispXNyuXCVdGK36hsZYtysXBVtOJHKlvZqlwqXBWt+JXKVrZJLhSuilb8TGUr28zPhauiFb9T2cp28WPhqmglF6hsZbv5qXBVtJIrVLayQ/xQuCpaySUqW9lhXhauilZyjcpWdooXhauilVykspWd5mbhqmglV6lsJSvcKFwVreQyla1kzVgWropWcp3KVrJqLApXRSv5QGUrWZfNwlXRSr5Q2cqYyEbhqmgln6hsZczsTOGqaCXfqGxlTO1I4apoJR+pbGXMbU/hqmglX6lsxRXbUrgqWslnKltxzZYKV0Ur+U5lK67aVOGqaKUQGF4H8IBDYd5vXzkX5jtwfwPjaKNHRVt4tA4LgON1AMk4F+Z/k+CKs2G+11nEdVqHBUAPsoj3Cm4dFsLM9htADDjnPaefs+70811PJFJ4tA4LQDmQAIaALjLfUbvWfZ5Yd76IjC2twwJxOTBM5gEe+Rhed7qIuEPrsACUA3FGP8hx9N1UxE1ahwViw++q+m4q4g2twwKw4XdVfTcV8YbWYYG4nMwwXt9NRbyjdVgAyoE70HdTES8V5Do0zAsfXGEPD0/1OoiMjUA4tDL142OmeZ1DtuwOPrwijtZhvgoRWhmwh4enTpwzx+ssMkZaFi+e6nUG2bo4w1PnoHWYrxazeGohvINMRMRzKlsREReobEVEXKCyFRFxgcpWRMQFKlsREReobEVEXKCyFRFxgcpWRMQFKlsREReYZji80usQIoUuTGilxxFkjJl2PD7V6xAihU4Hocl/GiOIiLhAZSsi4gKVrYiIC1S2IiIuUNmKiLhAZSsi4gKVrYiIC1S2IiIuUNmKiLhAZbsNvrBHOT85eBwAhzWEaSixAPjyrHdP35xZ44I8dULDmGcU8bPqcw9jwo2fAKDkqF0JTKoEYNwFH1x/+uaE9m5k+tKLsvb1vRLw9KvnoDN3L+O61wZoG0rzpyWDBAzD60giOaX67EPpufxRUmv66fvlUxCwvI7kiqyU7ef3KGeP6iBhy2BKeQDLgC8+1s2aaIrdq4NccVA1NSGL4bTDlS/289Ca2Ea38eVZ5ZyxWxkG0BlP8/Une2iObP7676sOcvWhNTy8JsaB9SHqiy0ufq6Xx1vjo2535HILW2IcOD5EZZHJRc/08j/vK2daeYCn24f57rO97FtXxFWH1DD37jaAjT4HOGt2BR9sDDOzKsgPF/cxpTzAjIoSJET+AAAgAElEQVQgFz7dw5LTJnHNKwN8sDHM+BKLm98e5LdvREZlMQ24YO9KPjalBICXuxJ859leIkl7s/dfZEsm3vc5hh5dSu9VT2BWhpn25jdZ89EbGX65ddTlSufvQd3lx2AUBUgu72bt5/9Gqm2A4NRxNPz5VKyGcgzLpP+3z9B9+aOjrhvaq5GGP51C9B9vUXz4dKzqYtq/cifV5x1O0a61DD22jPav3knxQVOY8MdTWLH7lQAbfQ4w7lvzKP3wTEKzJ9B54f0Ep9dQtHs9a7/wN3aN/IjuHz5M6YdnEmispO+Gp+m96onRd9g0qP2/D1N+8l4AxP+7mvaz7sQeGL3ujXCACb//JMWHTCO1uo/4C2vWn1e0Wx3jf/NxAhMqsAeH6fj63cT+s3LU9et+ugAzHKD9a3cBYFUXM6Plf1k2+Yeku6Lb/0CRpTGC7Th8uKmYS57vY8GD7bzSneD03UoxDfjV4TX88a1BDru7jbMWdXPtYeMYFxr9ZceFTM7es4KP3L+WQ+5q49a3o8xrDG/x+mkHZlYFea5jmJP+1cFPX+rnvL0qNso2crmHVsc5/h8dvN6T5EcHVnPWE90c80A7H59RSn3xtn1n/eVrA6yIpDj7yW7+0Tz6G4ZtO5QGDD7x7w5O/lcHF+5dycTS0be7YEoJR0wM85H71zL37jYMA87es2Kz919ka9rPupNx58/Fqiuj9gcfYuCmxRsVbWBCOY03n0bbabewYvcrGXrkHcZffwIA4y6YS/TfS1ix6xWs3OfnhOZMwqx8z7+9tE1o9gQG73uD5kOuI/5SK/XXnUDrKTexcr+rqfj0HAING6+9Tem5ciGJpV20nX4rkTtffc/XcTDLQqw+4tesnvcrai/9CMHJVaMuUv6JvSg7Zg9W7XsVK3b/MRgGNd89cqOvU3nmAQSbqlgx4zLWzL+R0qN2XX9e41/PYOCWF1ix+5W0f+UOGv/+aYyi0Ws1cusLlJ+8F0Yg01WlC2Yx9MTyHS5ayOLM9r8dw3TG0gC83Z+kocSiqSxAY2mAe1YMZU7vS/JOX4r960OjrjuUcjCAE6aVUh0y+duyKH9aMrjV6w+lbB5riW/wNTe9Ue9P2DzfOQzAqkiKZ9uHGU47xNMOnbH0Npft1owUcEcszWs9CfauHX0/j5xUzN0rhhhKOTjA35dFmdsY3uz9F9ma1Oo+en76GA03nUrpR/eg6wf/3ugyJR+aSeyZVQy/thaAvhueoXTBLLBMUm0DlBy1K+EDJmNHhmn9+J+x++Mb3Ua6N7Z+95dc1k1s0XKceAonliS1NkJgQnlW7s/gugJOtQ0w/GIL4QMmjzq/bP4eDNz6InY0AY7DwJ+fp/RDMze+z3OnE7nzVZyUjd0fZ/Ce1wEITq4iuFsd/b97DsjsjFOt/RQfPHXU9eMvtJDuGaLkyExJl5+4J5HbXtqp+5a1mW006az/u+OAZRjUhk36hm2cDS7Xl7AZFx7d8fG0wyf+3cnX9iznon0rebk7wbee7t3i9VdGRn9N2wFrM+PToZS9/u9pB2JpZ9TnZpbGrv2Jd7/OYNKhsmj0DdeETXqH371MX8KmJmxu9v43D2qMIFvX//vnqLtiPj0/WYgTS250fqC+jOLDpjN95XfXn+YMDhOoK6XnyoU4aYcJN56MVV9Gz5ULN/7RHTLlNiJtYw9t8HXSDljZ2bele9/9idEeiGNWF48636ovJ9299N3L9wxh1ZVudDvmuBLsDW4rc7kyrPpyzHCA6cu/8+5lS4s2eRsDf3mRitP2IbZoOSUfnMHaM/+6U/dtTJ8g64rbVIVMTCNThpAZGXTF7I0u+1pPgi8/3k3ANDh/rwouOaCKH/y3b5uvv7PSDmxYjWWB7f/HUx0yWb1uQ1pZNLpYAbrj9qgRyriQSWc889PApu7/mY92bXcGKTw13/8Q/X9+nsozD6Dv10+Tah0YdX5q7QBDD79Dy/F/2OT1e654lJ4rHqVo11qaFn6F2OPLiL/Qst05nLQ9ahGZ5aHNX3gzrJoSkit7MtevLsHuHhp1frojglVX9u7la0tJtW/8U6DdG8OsenccYo3P7LxTawewBxMsn/qjrWaJ3PoiUxafS/SfSxhatHzUN4IdMaYv/WqOpGgZTHHs1MwTQrPGBZlaHuC5juFRl9u3rogbP1hLyDJI2Q7LB1KY23H9bFg7lGZ8iUVFUeZ/yfwpxZu8XMpm/WXe66TpmZyTywO8rzrI4s7EqPMfWhPj+GmlFAcMTANO2aWUR9bEN3v/RbYmtFcjZcfNouPce+i9ZhH1vzhho8sMPfQOxR+YQtGutQCE92+i/trjAWj8yxmUfmR3AJKr+zJPNJk79q8v1dJPoLECsyqzdso+/v5NXzBpr7/Me1V8ag4Awek1hPZqIPb0qlHnD973BhWn7oNZEgTToPJzBxB94I2Nbif29ErKT3w/RtDCqi2l7LhZmYxr+kks66bi1H0AsOrKaLj1dMyyjb8xJJZ2kXi7k9or5u/0CAHGeGfrAGct6uaKg6o5f69K4mmHs57oHvXjNsBLXQlWD6Z44vgG0o5DRyzNN//Tu8XrTyjJ7stF2ofS3Pz2IPcfM57VgykeaYlxSMPGT1L9s3mIXx1ew49f7N/ovLVDaR45dgLlQZMfLu6jI5amrvjdf7gPrBpij+og//rYBAzgmfZhfvnaAPG0s8n7L7JFpsGE33yczgvvx4kl6b1mEVM/tz9lx81aP6MESLVHaDvzNhrv+AxmSRF2ZJj2szPPsvf8/HHG/+okxv/qRLAdBm5aTPz51TsUJ9U6QN8NzzDl2a+TXNlL9IE3KDlil40uF7nrVRpvO4Oui/+58W209DP11QuwKsN0Xng/qbYBrPHv7mQjt79C6P0NTHnxfDAMYk8sp+fKhRvdTv9vn82MTpovJtXcy+Dtr2CtexKv7dSbGX/Dx6m99CM4tkPvzx/HHtz0Bm7g1hepu+wYBu/duNC3l8HX73Imzpmz0zdU6N48ZSLz7l3L2qG011FGaVm8GK49QS8G9rlb+KAzh8Jeh7v2/ZAVs35CqmXjjYxXKk7dh7ITZtP6iZt26nYWs1g/rWaTGk1kJ/loEZkVYcZddAS9v3gyO7eXlVsREckjZcfPZvry7zB4z+vEFq3Iym3q7bpZssdft//ZWxF51ztVF3sdYb3Bu19j6d2vZfU2tbMVEXGBylZExAUqWxERF6hsRURcoLIVEXGBylZExAUqWxERF6hsRURcoLIVEXGBylZExAUqWxERF6hsRURcoLIVEXGBylZExAUqWxERF6hsRURcoLIVEXGBylZExAUqWxERF6hsRURcoLIVEXGBfrtuljjpNMl4nFQ8Tmp4GDuZJJ1K4aTTOLaN4zgYhoFhmhiWhRUIYAaDBEIhAuEwwXAYw7K8vhsiOc0mTYw4ceIMM0ySJClSpEljY+PgYGBgYmJhESBAkCAhQoQJU0wYk7FZhyrbHZROJBiOREgMDhIfHLTTw8OYwaIuwzKX2in7JWc4/hImHaSNfkyGMEjjYGFTguVUYlNvhMPvN01jb8exd7ETyXorFCJcVmYWlZURKi/HKiry+m6K+FqSBANEGMz8seMMEyLYBcZSB+elYYZfMjA6bJx+E2sInDQYlk26xMSodHDqw4Tfb2LsncLeJUmyPkyIMsrMMsqooJwg2VmHKtvtkIrHifX1MdTbO5iKxYPBcOg1TGthOpH6C9cc/4K9nbfnAOkNPk+fe9++iaHYJ+KDkSPTq5r3DBSHkyXV1WXFVVUEwuEs3hOR3BUnTh99dNM9mCARDBF8zSSwMEniL6ez8IWdvf2bOGJfi9gnIkSPbKZ5zyKKkjXUlFVRRZgdX4cq220w1N1NtLMrnYwPJYyi8MN2bOgarj3hkWS2v9DVC15Iwvp/LKmv33XkoMM5kbVtRwXDJUWldbVWSU1Ntr+qSE7oppsuutMxookQoYdjxK85g8ceyfbX+RSPvsAG6/BmPnhkLz3nrKXtqGJKi2qpsWrY/nWost2MdDJJtLOTwY6OlBUMvI0VuNa56rgbHDdDXHvCIzY8AmBf9O8vRda2fb1v9erdyurrA6V1dVjBoJtpRFyXJEknnXTSngoSetvEuPYUHr3BzQzrCv0RgLs55kvttH99Nc271TM+UEcdQbZtHaps3yOdSDDQ3p4c6ugImsUl9zlO6lupHx/7pte5Upd/6AbgBs6++33Rvv4rIm1tC0rqxycrxtcHNduVfJMgQTvtyQ46giUU3+eQ+taJPOr5OjyeB28AbriZQ9/XT98VbbQtGE99sp7xwaKtzHZVtus4tk2krY1IW7tjBK0/Yjrft6/8cJvXuTbyi+PfsOFYzr2zIdbTfclQe8cXyhvGG+UNDRimXsknuc3Gpo022mlzLIJ/tEl//wT+4bt1eAZPvgEcexOHNXTTc0kH7V8YT4PRQAPmZl5Rq7IFol1d9K9pGTYC5kMUpb/m/Oz4VV5n2qqrT2xz4It8444fRXt7rhvs7Dq6ctLEUGltrdfJRHZIF1200DJsYj7kYH3tkzzs+3X4KRa1AV+8hSN+1EPPdV10HT2RiaFaNl6HBV22iaEh+tasTtiJ4VVOMnGmc9VJT3mdabv97KRVNizga3ccEmlt+320q2tK1eTJoaKSEq+TiWyTIYZoZk0iSXxVkvSZZ/Bwzq3D03l0FbDgZuYdspa233fTNaWJyaES3l2HBftzZ6Stjc4lb6WcpH1Z+icf243rcrBoN3TdSU+lfzZ/pm2nr+h8861kpM13P3mJbKSNNpbwZipN8rKTeWi3M1iY0+vwDBY+9XH+PTOFfcVbvJlq4911WHBlmxwaov2NNyPR7q5nsBMzUj/+8CVeZ8qm9JUf/QFYu0S7u59pf+uNAa/ziGzKEEO8yZuRbjqfSZKccRL/zKt1eBL/+EGKwIxuOp95k8w6DABEOzspravzNp0LIu3tqYE1awJY5ve46rhrvM4zZq5d0JyGgzn/vvPD1eMWxL3OI9ukk07qyP912E57ag1rAhbm907h0bxdh5/m4Wbg4L9y5PnVVC0wOOeuvTHM3xYVlzSOmz6tMR9fRpROJOhZubIlER3sxHHO5JoTXvI6k8iGbmHu3ibWb0sobZzG1MatvYwoFyVIsJIVLUMMdaZJn3k6jxfUOjTW/+2cu/8Xh+9UNE2KltfXj/MwU1YNtLV3RlpbKnC4jF8c/39e5xHZkluZ97/AdyYxMVrP+LxZh+2s7WyhtQK47DQWFuQ6NEZ9dt49++E4PwkUFU2vnjJ1clFZmUexdl5icJCeVSvXpBOJFaSM87nuuOe9ziSyLf7C3P3A+EmAounTmDa5jNxdh4MMsopVaxIMrwD7/FN5vGDXobHJU79+1xcxjMvDFRWxqsmTJ+bSaCGdSNDXvKYtHukLYTsXce0Jv/E6k8iOuIV5XzTg8goqY5NpmphLo4UECVazpm2AvpANF53OwoJfh5suW4Dz/lZMKngxcFHp+PqB8gkTKv38Xvx0Mklk7dr+aHtHBXA5geQPueoTMa9zieyMv3FQcZLgxQbmRXXUD0ygoXJb34vvhSRJ1tLW30FHBdiXB0n+8BM8o3XIlsp2xNl3TMKyvo3tfDU8rnplZUPjVD8d7i8Vj9Pf1roy3tM7FdO4nnT6Cn5x0hqvc4lk083MnWTCtx2Mr46jamUDE6fuzOH+si1OnDZaVvbQN9XAud6GK87gca3DDWy9bEece2cDNl/FML8aLA53ldU3VJTUVNePYbYtGuru7RjsaBtIxuK14FyH4fySq0/UK/klr93EYQ0G5lfB+Gop4a56JlTUUOPZOuymu6ODtQNR4rUmXJcm/ct1b2GV99j2st3Q1+8+E4PPgrFXqLKir7y+fkqovDy7yTZhOBIh0tGxarh/oAqcl3H4I9ce/4cx/8IiPnQrc890MD5rYu5VQWVfPXVTyhn7dRghQgedqwbor7KxXzZw/ngaj2sdbsWOle2Ic+6ZiZ0+CTNwKo49PVhatra4siIQqqicVFRavNPvTktEY3Y80rcq3j9gJwejDRjmcuzUXzCtO7jmuCU7e/si+eBm5s004CQLTnVgeiklayupClRQMamYkp1ehzGG7H4GVvXRa8eINRiwPA1/ceCOM1iodbiNdq5sN3T2HZMwA0dg24djOh8AZphWqL0oHE5bpcXlwXC4xgoEMCwr80sPDQPHcTK/DDGdJp1KkRyKdSWH4/3JWCzgpBINwDJs4z+Y5hPYqUc1ixXZssxs1zzCwT7cgA84GDMCBNvDFKdLKS4PE64JEMDCwsTEwMDBwcYmTZoUKeLEu4YY6o8TCyRJNRg4yxz4j4H5hI39qGaxOyZ7Zften7unnAp7Nml7JphTMYyJ2Ol6DKMSjGIMLBzS4MRwnH5MqwPHaQF7JZa5hAHzNX5/XGTM8okUgN9xSHkx1mwHYyYwFZjk4NQZGJXgFINhrfsliDEHp9/E7HBwWkyMFQ722zHSr32ep7QOZYf8wOsAIqJ1WAhc/TViIrJJBbcOC+4QiyIiXlDZioi4QGUrIuICla2IiAtUtiIiLlDZioi4QGUrIuICla2IiAtUtiIiLlDZioi4QGUrIuICla2IiAtUtiIiLlDZioi4QGUrIuICla2IiAtUtiIiLlDZioi4QGUrIuICla2IiAtUtiIiLlDZioi4QGUrIuICla2IiAtUtiIiLlDZioi4QGUrIuICla2IiAtUtiIiLlDZioi4QGUrIuICla2IiAtUtiIiLlDZioi4QGUrIuICla2IiAtUtiIiLlDZioi4QGUrIuICla2IiAtUtiIiLlDZioi4QGUrIuICla2IiAtUtiIiLlDZioi4QGUrIuICla2IiAtUtiIiLlDZioi4QGUrIuICla2IiAtUtiIiLlDZioi4QGUrIuICla2IiAtUtiIiLlDZioi4QGUrIuICla2IiAtUtiIiLlDZioi4QGUrIuICla2IiAtUtiIiLlDZioi4QGUrIuICla2IiAtUtiIiLlDZioi4QGUrIuICla2IiAtUtiIiLlDZioi4QGUrIuICla2IiAtUtiIiLlDZioi4wPI6gAcM4DGvQ4gUOK3DAhBHO3oRL5lk1mFBKcTS6QQmeB1CpIBNILMOC0ohlu3bwCyvQ4gUsFnAEq9DuK0Qy/Y/wDyvQ4gUsHnA016HkLG3P7DM6xAiBWw5mXUoBeAe4DyvQ4gUoPPJrD8pELOAIWC+10FECsh8MutOz5kUmJEHXjtckbF3PtrgFLRZZH6kWQZcBhwNNFKYTxyKZItJZh0dTWZdLSezzgp6R2t4HcAn9geOBT4A7AbUAVcA3/cyVB4bJvM6y6XAs8A/gMd34Hb0uPnTyOP7NplX/9wL/NfTRCIFyiKz8zkS+AHwMpmXAn1sG68/8hPJcvQTid8UeR1ARLbsZN4d52zJyKz9/DFPJCKSp6qBh4Afb+Z8vYpERCRLyoHXgU9u4jy9PlpEJIs+DLz1ntP0zj/JaXpCQfzoX8AK4IwNTjsWuM2bOCI7T2UrfnUTmSfNRnwAWOhRFhGRvFVB5smwkQ3BajIv7xIRkSx7FZiz7u9x9CYcyWEaI4if/ROYQeaF8iHA8TaOyI5T2Yqf2cB0IOF1EJGdpbIVP1tBpmxFcp7KVvxsOTDN6xAi2aCyFT9bjna2IiJjziTzpNjIf0Vylna24mc22t1KnlDZit/pSTLJCypb8Ts9SSZ5QWUrfqcxguQFla34ncpW8oLKVvzuvTPbi7wKIiKSj54hc/CZ7wA9ZF76dSeQApLod5CJiOy0i8gcD8EB0mReAuas+7DXnVfuWToRkTzySzK7WOc9Hyngcg9ziYjknWY2LlvtakVEsuxI3h0njIwQtKsVERkD1zF6hKBdrYjIGOkmU7Z/8DqIiEg+O4PM/Fa7WslZ+gV64rq9WFgVpmIGGFMNmGJi7mZgTALGO9jVQLmDXexgFDnYAcDa4OppAzNl4CQMzBgQMTB7begwcZoTpJaamCvBWRlnYNnLzOvz4C6KbERlK2PqA7w8O0lyThGBw8DYJ01qhoNRHCI4VESRE6K4KExRaZAggXV/rHV/TEyMdX9GOOv+2Nik1/1JrfuTJEmc4egwiUSCuDFMssTAiVkEloHxYoLEoiDBxf9hr9c8/F8iBUplK1l1IM8fahGYb2AcZZOabREYLqUkXUJZRSklgTBhiihyLU+CBHHiDBFLRolEogxZaVIhk8BrYDyUIvHgs+z3pGuBpGCpbGWnHMir4yFxbJDgaWmSBwUJxiqpDFRQWV5KKQECXkfcSIoUUaIMEIn005tKkiy2CD6TIn2LQ+C+Z9mz3euMkn9UtrLd9ue5GpPQGQH4bIrU+yopHxhHTW0FFb4s161JkWKAAbrp6R5goDxA4A2w/5QgedN/OaDb63ySH1S2ss0O4Pn5RQTPT5KcW0FlXx21NVVUeR0r6/roo4vurn76qgMEnkiS+tlz7PeA17kkt6lsZYvm8npZivSFDvYXgwSD46mvGMe4oFkAR+e0semiO9lJ50CSZNLAuCFA4KePM2vQ62ySe1S2sklzeL6hhND/JUh8uorKgQlMqC2l1OtYnokSZS3tXX30VQQo+lOc4e8vZr82r3NJ7lDZyij781xNESU/STL8mTpqexuYUOPmqwf8LkGCVtp6uuiuChL6U4KhCzXXlW2hspX1DueVK4ZJnldLbaSRhpogQa8j+VaSJK20dXfRVR4ieNUTvP/bXmcSf1PZCgfz4skmXF1CWaCJSfVhwl5Hyhlx4qympWOISMqGc55mn9u9ziT+pLItYHN4vraY4E1gHDiFydWVVHodKWf1088qmnvBeTZG8lOL2a/L60ziLyrbAnUoL38qjX19DTXJyTSN8zpPvljDmu5OuooszK8+yV43eZ1H/ENlW4AO5ZWbDez5U5leVa4DaWVdhAgrWd7nYD7wJO8/w+s84g8q2wIyh+cnhwk+UEpZ3QymjTf08I8ZB4dlLO+IEu2Ik5y/mP2avc4k3tJqKxAHsPgwC/PeBiYYE5ig4axL1tLa30aHk8Y+9jnmLPI6j3gn/98GJBzCi6cZOAunMqVUReuuCTRWTmFKmYGz8GBePtXrPOIdlW2eO5RX/sfG/t1u7GZVU60XznpgHNWB3djNgtTvD+WlL3qdR7yhMUIeO5RXvpgiddVMdisp5Lfa+kWUKEt4eyiIdc4i9rrR6zziLpVtnjqY5493MP86k91CKlr/WFe4wwbGKU+zz91e5xH3qGzz0IEsngPO07uya7CCCq/jyHsMMMA7vJME4+BnmbPY6zziDpVtnjmAZysCFL01kaaaOmp0BBmf6qYrvpo1vSkSuz/HgQNe55GxpyfI8kwRJfeMoyaoovW3GmrDNdQUBSm+1+ss4g6VbR45jFcuDmDNnkxTrddZZOuaaKoJEph1KK991+ssMvY0RsgTB/Lirg72W7N4n1mso3bljBhxXucN28Dc/Vn2ecfrPDJ2tLPNEwHM3zXQMKiizS3FhGmkIRrA/J3XWWRsqWzzwIH891gDY/ZEGvTSgxzUSEO5gTF7f15Y4HUWGTsq2zwQIPjjJiZVe51DdlwTk6qLsH7sdQ4ZOyrbHHcQLyywCNZWo67NZdVUYxGoO0i727ylss1xAYzvTWC8Dv6dBxoYXxMg8D2vc8jYUNnmsP3478w0zqxaavSqkjxQQw1pUrP2478zvc4i2aeyzWEhij5fw7iE1zkke6oZlwhR9Dmvc0j2qWxzmnPSOGqqvE4h2VNLTRU4H/c6h2SfyjZHHcTTE23SjWWUeR1FsqiMMmzSjQfx9ESvs0h2qWxzVtEhJZRGvU4h2Zd5XIsO8TqHZJfKNkcFCMytoCIvfjXuN56E69Lwi9Toj/LxULdL5u8AZgCud+Dka0Zff6/j4Ut5dGTYCioqAgTmep1DsivgdQDZMTbsU0xx3hzZ68+fgedu3vj08Hu+nSRjsM/J8OQN0PaGO9ncVkxx0IZ9vM4h2aWdbY5ycJpChLyO4T4DHrwETrrK6yBjJ0QIB6fJ6xySXSrbHGVjVwcpvN/faAXgqd9mRgzvP9brNGMjSBAbW28JzDMaI+QoB6fYwvI6RtZ84jo48afvfj4che/P2MQFDXBsuP1cOP238Po/XYvoGgsLB6fY6xySXSrb3GQYOKaRR4cjvve78NId737u2Fu+/DuPQcsrcOR50L5kTKO5zsDAwNFPnXlGD2huchwM28HxOkfWxPthYO27H5GOrV/nzgvgyG9AWd3Y53OTg4ODsZVvN5JrVLY5ysCIpUl7HcNT3SvgqRvh6G95nSS70qQxMGJe55DsUtnmKBOzN0nS6xie+9dlUJRn080kSUzMXq9zSHblz9CvwBzCi09NYeoHqtChEfJNH32sYuV/nmIfvYssj2hnm6MczJeHiMW9ziHZFyU2bGK84nUOyS6VbY6yST0WYUDHRshDUSLRJOmFXueQ7NJLv3JW4qkhKPU6hWRflMESSDzldQ7JLu1sc9QzHNxiYrUOMuh1FMmiQQYxsVqf4eAWr7NIdqlsc5iBcWc33XrWOo900dNjYNzpdQ7JPpVtDouTuLGHngI8Gk3+6qU7HCdxo9c5JPtUtjnsefZfYhF4vYvuwn53Q57ooidtEXj9efbPszcgC6hsc16K1KVtrO33OofsvDba+lOkLvU6h4wNlW2Oe4Z977NJd/bQmz8HSihA3fQ6NunOZ9j3Pq+zyNhQ2eaBBKkL1rCmz+scsuNaWNOXIHWB1zlk7Khs88B/mXO/g/NaG60aJ+SgFtoGHJzX/suc+73OImNHZZsnUtifb2FteQy9gzeXxIjTRltZCvvzXmeRsaWyzRPPss87RRRdsoKVnV5nkW23gpWdIYI/eJZ93vE6i4wtHfUrzxzKKwurqdqziaYar7PIljWzuqeP/leeZM95XmeRsaedbZ5JEDuum+5EN12aJ/hYJ12xHsXAPJYAAARVSURBVLqHEwwd53UWcYfKNs88x4EDaewFK1llDTDgdRzZhAEGaGZVII294DkO1INUIFS2eehZ5iwOYJ6ylGXDUXQURj+JEmUpy4YDBE95ljmLvc4j7lHZ5qmn2PdOE+trS3h7SIXrD1GiLOHtIQvrq0+xlw42U2D0BFmeO5hXvwSJq3dh13A55V7HKVgRIizlnXiAwHmL2OvXXucR96lsC8AHeOGUNPbN05jOOKotr/MUml567eUsdywCp/+HvW/zOo94Q2VbIA5g8WEW5r3jGU8jDfotkS5ppbWvnQ7+v537eY2jjOM4/n5mZ3Y22WR3k82PWstaUrxoQ9WkDbQSETy1IIIniUU8CUKhoOjNiyeRgnjRY9Hq3UP14EGMWkxMpCXVi6TUENom2U12J9lkd55nZjwYRbGIxTTPJvt9Pf/Ae3bZz2GYnYj42WlGvrHdI+yRsW0jI8yUMniXs2QHjjA0oOTrv28SEua5sVynvtxAn5lldMF2k7BLfm1taJzrnySY04cZKsh93J23zjo3uVFVuJ9PcnTCdo9oDTK2beoUVydikg+K9JoSpR7bPfvFAourFcqeQr16hccu2e4RrUPGto2NMNPXgfcxqLGHKPXkydtO2rNq1PiVhTWFmt6k+eIso2XbTaK1yNgKTvLj8wr1fpYu7xCH+jNkbCftGQ0aLLK4UmdDRyTnvucJeX5W3JWMrfjTKebeMYTnixTXH+Rg0cOzndSyNJpb3KqUqXS7pN/7juE3bTeJ1iZjK/7mONPFNJl3NfqlPvqqBznQmyZtO6tlhITc5s7qCuWCT/pig603fuBExXaXaH0ytuKuRph5IIv/dpPwbA/52iAH+rNkbWdZU6fOEndW1qjlfdIf1Wm+NcvobdtdYu+QsRX/6il+6jKY1xOSVzw8b4CBQpHelNMGr9WIiSmzalZYrmm0dlAfpnAvfM2jG7bbxN4jYyv+sxPMnPFwXzOY8Ty5tT76+wrsvz+jValSZqVcI+hxcSc15sI0o5dtd4m9TcZW3LPjTBc9/AkFLxvMIzly60V6izlyuLi28+6ZwRAQUGG1EhB0u7g/G+KLMfqS3I8VO0XGVvwvY8wNOujnHNwXYvSYi7+Zo9stkM9lybbk+BoMdepUCYKAwBianQ7elEF/CunPphhest0o9h8ZW7Gjxph50sU9rXCeidDDKdxmJ9m4m65cBx2pDBl28+mGkJAGDTbZijbYCDapOxHGT+HNRURfxkRfTDH67a4FibYlYyvuq5NcO6rRIz7ueAyPx0RDCarDx9v08eM0vp/G7/TxlMvvJ7V9HBzU9vlDsn1iYqLtY7aPRtMk3GiwpUNC1UR3KpKtFO68Ql1tEk56eLNXOHbd4kci2pSMrdh1x/iqkCF3BNThhKjk4j2sUCVgMCHuAboT4o4ElU6IXeCv7+CNFI5RJKHC2QLWFc4asJSQLBj0L4rUAiQ3GwTz13i6auEShfiH3wA7e+Wc1FFHzgAAAABJRU5ErkJggg==;" vertex="1" parent="1">
                    <mxGeometry x="220" y="60" width="347" height="571" as="geometry"/>
                </mxCell>
            </root>
        </mxGraphModel>
    </diagram>
</mxfile>